<?xml version="1.0" standalone="no"?>
<!DOCTYPE svg PUBLIC "-//W3C//DTD SVG 20010904//EN"
 "http://www.w3.org/TR/2001/REC-SVG-20010904/DTD/svg10.dtd">
<svg version="1.0" xmlns="http://www.w3.org/2000/svg"
 width="608.000000pt" height="608.000000pt" viewBox="0 0 608.000000 608.000000"
 preserveAspectRatio="xMidYMid meet">
<metadata>
Created by potrace 1.11, written by Peter Selinger 2001-2013
</metadata>
<g transform="translate(0.000000,608.000000) scale(0.100000,-0.100000)"
fill="#000000" stroke="none">
<path d="M2858 5995 c-1 -1 -34 -6 -73 -9 -38 -4 -81 -9 -95 -11 -14 -2 -43
-7 -65 -10 -65 -8 -132 -20 -137 -24 -2 -2 -14 -4 -28 -6 -114 -16 -400 -107
-538 -170 -30 -14 -60 -25 -67 -25 -8 0 -15 -3 -17 -7 -1 -5 -34 -23 -73 -41
-98 -47 -284 -159 -385 -231 -210 -149 -451 -377 -580 -547 -25 -33 -51 -65
-58 -72 -21 -23 -178 -263 -212 -326 -102 -186 -213 -447 -245 -576 -2 -8 -14
-49 -25 -90 -23 -81 -29 -101 -36 -140 -5 -30 -11 -57 -18 -90 -3 -14 -8 -43
-11 -65 -3 -22 -7 -51 -9 -65 -7 -37 -15 -123 -22 -230 -9 -148 -10 -191 -2
-197 5 -2 4 -12 -2 -22 -5 -10 -7 -21 -4 -23 2 -3 7 -49 9 -102 2 -53 7 -113
9 -134 3 -20 8 -57 11 -82 3 -25 9 -67 15 -95 5 -27 12 -62 15 -77 13 -68 17
-88 36 -163 12 -44 22 -84 24 -90 1 -5 4 -14 5 -20 42 -150 177 -463 260 -600
17 -27 33 -58 36 -67 4 -10 10 -18 15 -18 5 0 9 -5 9 -11 0 -9 108 -172 141
-213 5 -6 25 -31 45 -56 84 -106 125 -151 230 -255 134 -133 145 -142 259
-232 76 -59 237 -169 326 -223 65 -39 294 -150 369 -179 47 -18 93 -37 102
-42 10 -5 25 -9 33 -9 8 0 23 -4 33 -9 33 -19 245 -77 347 -97 22 -4 42 -8 45
-9 3 -1 46 -7 95 -14 50 -7 101 -15 115 -17 121 -21 545 -21 653 1 15 3 51 7
80 10 29 2 52 4 52 5 0 2 38 10 75 15 19 2 62 11 95 20 33 8 71 18 85 21 68
14 193 53 320 101 82 30 80 30 230 102 234 112 435 242 620 400 80 67 282 271
330 330 19 25 50 61 68 81 17 21 32 41 32 44 0 4 7 14 16 23 35 36 205 303
235 371 7 17 17 32 21 32 5 0 8 5 8 12 0 6 13 39 29 72 54 111 81 175 81 188
0 8 4 18 9 23 19 22 122 369 136 465 3 14 11 63 20 110 9 47 18 112 21 145 2
33 7 78 9 100 6 51 6 341 0 420 -8 114 -15 190 -20 205 -3 8 -7 33 -10 55 -3
22 -7 47 -9 55 -4 22 -17 83 -20 100 -12 62 -69 273 -86 315 -4 11 -27 70 -51
130 -64 165 -159 355 -241 478 -21 32 -38 60 -38 63 0 5 -136 191 -156 214 -8
8 -32 38 -55 65 -74 90 -220 235 -346 345 -25 22 -78 63 -103 80 -12 8 -32 23
-43 34 -36 30 -105 76 -115 76 -6 0 -12 4 -14 9 -1 5 -48 36 -103 68 -198 118
-387 205 -570 262 -38 13 -77 25 -85 28 -8 3 -24 8 -35 10 -11 2 -31 7 -45 12
-34 13 -146 39 -200 46 -24 4 -48 9 -53 12 -4 2 -25 6 -45 9 -52 5 -131 14
-172 20 -40 6 -486 14 -492 9z"/>
</g>
</svg>
