<svg xmlns="http://www.w3.org/2000/svg" viewBox="0 0 205.98 53.4"><defs><style>.cls-1{fill:#77b7bf;}.cls-2{fill:#033d55;}.cls-3{fill:#fff;}</style></defs><g id="Layer_2" data-name="Layer 2"><g id="Layer_1-2" data-name="Layer 1"><path class="cls-1" d="M64,5.17l11.43,19.1H68.87l-1.8-3.22H54.93l-1.8,3.22H46.61L58,5.17Zm-3,5-3.46,6.22h6.9Z"/><path class="cls-1" d="M77,6.7a2.62,2.62,0,0,1,.79-2.15,3.66,3.66,0,0,1,2.4-.66,3.83,3.83,0,0,1,2.43.66,2.6,2.6,0,0,1,.81,2.15,2.66,2.66,0,0,1-.79,2.16,3.82,3.82,0,0,1-2.45.65,3.72,3.72,0,0,1-2.4-.65A2.66,2.66,0,0,1,77,6.7Zm6,3.93V24.27H77.47V10.63Z"/><path class="cls-1" d="M91.85,10.63,91.3,15.7h.27a6.48,6.48,0,0,1,2.2-4.22,7.93,7.93,0,0,1,4.9-1.29v4.7a21.59,21.59,0,0,0-4.23.31,3.52,3.52,0,0,0-2.22,1.34,5.34,5.34,0,0,0-.75,3.15v4.58H86V10.63Z"/><path class="cls-1" d="M118.59,13.7a8.53,8.53,0,0,1,.84,3.86,7.92,7.92,0,0,1-.86,3.75,6.06,6.06,0,0,1-2.43,2.51,7.21,7.21,0,0,1-3.61.89,6.88,6.88,0,0,1-4.24-1.34,5.59,5.59,0,0,1-2.23-3.52H106v9.88h-5.51V10.63h5.62l-.6,4.45h.33a5.57,5.57,0,0,1,2.31-3.54,7.43,7.43,0,0,1,4.48-1.35,6.93,6.93,0,0,1,3.6.92A6.16,6.16,0,0,1,118.59,13.7ZM106.5,17.51a2.3,2.3,0,0,0,1.13,2.1,5.28,5.28,0,0,0,2.74.68,5.1,5.1,0,0,0,2.7-.68,2.29,2.29,0,0,0,1.12-2.1,2.4,2.4,0,0,0-1.12-2.17,4.86,4.86,0,0,0-2.7-.73,5,5,0,0,0-2.74.73A2.4,2.4,0,0,0,106.5,17.51Z"/><path class="cls-1" d="M122.71,21.26a6.73,6.73,0,0,1-1.09-3.81,6.73,6.73,0,0,1,1.09-3.81,7.11,7.11,0,0,1,3.07-2.55,12.18,12.18,0,0,1,9.19,0A7.11,7.11,0,0,1,138,13.64a6.73,6.73,0,0,1,1.09,3.81A6.73,6.73,0,0,1,138,21.26,7.11,7.11,0,0,1,135,23.81a12.18,12.18,0,0,1-9.19,0A7.11,7.11,0,0,1,122.71,21.26Zm11.18-3.81a2.53,2.53,0,0,0-1-2.06,4.57,4.57,0,0,0-5.11,0,2.69,2.69,0,0,0,0,4.12,4.57,4.57,0,0,0,5.11,0A2.51,2.51,0,0,0,133.89,17.45Z"/><path class="cls-1" d="M147.48,10.63l-.54,5.07h.27a6.48,6.48,0,0,1,2.2-4.22,7.93,7.93,0,0,1,4.9-1.29v4.7a21.59,21.59,0,0,0-4.23.31,3.52,3.52,0,0,0-2.23,1.34,5.34,5.34,0,0,0-.75,3.15v4.58h-5.51V10.63Z"/><path class="cls-1" d="M157.66,22.53a12.53,12.53,0,0,1-.3-3.17V14.67h-1.55v-4h2.1V7.36l5-.55v3.82h2.7v4h-2.7v3.87A7.6,7.6,0,0,0,163,20a.92.92,0,0,0,.4.62,2.35,2.35,0,0,0,1.12.2l1.09-.05V24a15.77,15.77,0,0,1-4.11.54,5.6,5.6,0,0,1-2.64-.47A2.46,2.46,0,0,1,157.66,22.53Z"/><path class="cls-2" d="M57.3,28.85q5.24,0,8.19,2.45a8.74,8.74,0,0,1,2.94,7.1q0,4.66-2.94,7.11c-2,1.62-4.7,2.44-8.19,2.44H48.11V28.85Zm4.24,13.22a4.59,4.59,0,0,0,1.38-3.67,4.54,4.54,0,0,0-1.39-3.7,6.53,6.53,0,0,0-4.23-1.16H53.62v9.72H57.3A6.39,6.39,0,0,0,61.54,42.07Z"/><path class="cls-2" d="M70.7,30.38a2.66,2.66,0,0,1,.79-2.16,3.76,3.76,0,0,1,2.4-.65,3.85,3.85,0,0,1,2.43.65,2.6,2.6,0,0,1,.82,2.16,2.62,2.62,0,0,1-.79,2.15,3.81,3.81,0,0,1-2.46.66,3.7,3.7,0,0,1-2.4-.66A2.62,2.62,0,0,1,70.7,30.38Zm6,3.93V48H71.19V34.31Z"/><path class="cls-2" d="M79.46,47.32V42.71a16.5,16.5,0,0,0,3.18.91,18.6,18.6,0,0,0,3.31.26,17.85,17.85,0,0,0,2.76-.15c.56-.1.84-.26.84-.5s-.25-.48-.75-.56a21.76,21.76,0,0,0-2.38-.18,30.23,30.23,0,0,1-3.74-.28A6.06,6.06,0,0,1,80,41.14a2.9,2.9,0,0,1-1.14-2.52A3.82,3.82,0,0,1,81,35.06a12.23,12.23,0,0,1,5.88-1.19c.84,0,1.89.07,3.16.2s2.5.33,3.66.56v4.62a28.91,28.91,0,0,0-6-.71,19.77,19.77,0,0,0-2.74.13c-.58.09-.86.24-.86.44s.18.29.56.34,1,.08,2,.1a31.61,31.61,0,0,1,4,.24,6.34,6.34,0,0,1,2.93,1.13,3.19,3.19,0,0,1,1.27,2.77,3.76,3.76,0,0,1-2.11,3.56,12.61,12.61,0,0,1-5.91,1.14,26.39,26.39,0,0,1-3.63-.29A25.54,25.54,0,0,1,79.46,47.32Z"/><path class="cls-2" d="M97.52,44.93a6.8,6.8,0,0,1-1.09-3.8,6.7,6.7,0,0,1,4-6.36,10.44,10.44,0,0,1,4.48-.9,14.36,14.36,0,0,1,3.26.35,18.74,18.74,0,0,1,3.21,1.12V40a11.1,11.1,0,0,0-5.76-1.69,4.86,4.86,0,0,0-3,.76,2.47,2.47,0,0,0-1,2.08,2.45,2.45,0,0,0,1,2.06,5,5,0,0,0,3,.77,10.64,10.64,0,0,0,5.68-1.66v4.61A18.81,18.81,0,0,1,108.22,48a13.85,13.85,0,0,1-3.3.35,10.06,10.06,0,0,1-4.38-.91A7.14,7.14,0,0,1,97.52,44.93Z"/><path class="cls-2" d="M115.23,44.93a7.19,7.19,0,0,1,0-7.61,7.11,7.11,0,0,1,3.07-2.55,12.21,12.21,0,0,1,9.2,0,7.08,7.08,0,0,1,3.06,2.55,7.13,7.13,0,0,1,0,7.61,7.08,7.08,0,0,1-3.06,2.55,12.08,12.08,0,0,1-9.2,0A7.11,7.11,0,0,1,115.23,44.93Zm11.19-3.8a2.52,2.52,0,0,0-1-2.06,4.56,4.56,0,0,0-5.1,0,2.67,2.67,0,0,0,0,4.12,4.61,4.61,0,0,0,5.1,0A2.54,2.54,0,0,0,126.42,41.13Z"/><path class="cls-2" d="M137.77,34.31l4.53,8.59,4.53-8.59h6L145.6,48H139l-7.21-13.64Z"/><path class="cls-2" d="M154,44.93a7.61,7.61,0,0,1,0-7.61,6.87,6.87,0,0,1,2.88-2.55,9.79,9.79,0,0,1,4.31-.9,10.85,10.85,0,0,1,4.27.78,6.7,6.7,0,0,1,2.88,2.18,5.47,5.47,0,0,1,1.07,3.23V42.3h-11c.47,1.24,1.85,1.86,4.12,1.86a12.49,12.49,0,0,0,3.1-.32,16.53,16.53,0,0,0,2.52-.91l.63-.27v4.39a24.49,24.49,0,0,1-3.45,1,21.75,21.75,0,0,1-4.17.32,9.66,9.66,0,0,1-4.31-.91A6.87,6.87,0,0,1,154,44.93Zm9.19-6.15a3.71,3.71,0,0,0-2-.49,3.34,3.34,0,0,0-1.88.53,2.42,2.42,0,0,0-1,1.57l5.79-.14A1.93,1.93,0,0,0,163.15,38.78Z"/><path class="cls-2" d="M177.72,34.31l-.55,5.07h.27a6.53,6.53,0,0,1,2.2-4.23,8,8,0,0,1,4.9-1.28v4.69a21.44,21.44,0,0,0-4.23.32,3.55,3.55,0,0,0-2.22,1.33,5.38,5.38,0,0,0-.75,3.15V48h-5.52V34.31Z"/><path class="cls-2" d="M185.36,34.31h6.33l4,7.64,4-7.64H206L195.92,53.4H189.7l3-5.75Z"/><path class="cls-2" d="M20.89,38.09V49.81a2.73,2.73,0,1,1-5.46,0V38.09a1.15,1.15,0,0,1,0-.19,19.56,19.56,0,0,0,5.44,0A1.15,1.15,0,0,1,20.89,38.09Z"/><path class="cls-3" d="M18.16,34.94A16.78,16.78,0,1,1,34.94,18.16,16.8,16.8,0,0,1,18.16,34.94Z"/><path class="cls-2" d="M18.16,2.78A15.38,15.38,0,1,1,2.78,18.16,15.4,15.4,0,0,1,18.16,2.78m0-2.78A18.17,18.17,0,1,0,36.33,18.16,18.19,18.19,0,0,0,18.16,0Z"/><path class="cls-1" d="M10.22,23.11,30,16.16a1,1,0,0,0,.6-1.3c-.48-1.13-1.74-2.68-4.92-1.65l-4,1.53a1.08,1.08,0,0,1-.91-.08L12.2,9.17a.61.61,0,0,0-.54-.06l-1.46.5a.48.48,0,0,0-.19.81L15.62,17,10,19.14A1.06,1.06,0,0,1,9,19L7,17.66a.51.51,0,0,0-.43-.06L5.69,18a.48.48,0,0,0-.25.75l2.62,3.67a1.87,1.87,0,0,0,2.16.73Z"/><rect class="cls-1" x="15.56" y="23.97" width="11.97" height="2.61" rx="1.31"/></g></g></svg>